<svg xmlns="http://www.w3.org/2000/svg" xmlns:xlink="http://www.w3.org/1999/xlink" width="500" zoomAndPan="magnify" viewBox="0 0 375 374.999991" height="500" preserveAspectRatio="xMidYMid meet" version="1.0"><defs><clipPath id="5910e9238c"><path d="M 253 253 L 337 253 L 337 274.3125 L 253 274.3125 Z M 253 253 " clip-rule="nonzero"/></clipPath><clipPath id="f09c41cc9c"><path d="M 300 189 L 360.9375 189 L 360.9375 273 L 300 273 Z M 300 189 " clip-rule="nonzero"/></clipPath><clipPath id="8ef301f02f"><path d="M 300 102 L 360.9375 102 L 360.9375 186 L 300 186 Z M 300 102 " clip-rule="nonzero"/></clipPath><clipPath id="f21255c38d"><path d="M 14.070312 189.242188 L 74.832031 189.242188 L 74.832031 272.675781 L 14.070312 272.675781 Z M 14.070312 189.242188 " clip-rule="nonzero"/></clipPath><clipPath id="35cd821011"><path d="M 40 256 L 120 256 L 120 274.3125 L 40 274.3125 Z M 40 256 " clip-rule="nonzero"/></clipPath><clipPath id="6679cafd6e"><path d="M 38 253 L 122 253 L 122 274.3125 L 38 274.3125 Z M 38 253 " clip-rule="nonzero"/></clipPath><clipPath id="69385f2c0f"><path d="M 102.296875 14.0625 L 185.730469 14.0625 L 185.730469 74.84375 L 102.296875 74.84375 Z M 102.296875 14.0625 " clip-rule="nonzero"/></clipPath><clipPath id="bd984722dd"><path d="M 14.070312 102.304688 L 74.832031 102.304688 L 74.832031 185.738281 L 14.070312 185.738281 Z M 14.070312 102.304688 " clip-rule="nonzero"/></clipPath><clipPath id="6916417ef6"><path d="M 185.730469 14.0625 L 189.328125 14.0625 L 189.328125 14.136719 L 185.730469 14.136719 Z M 185.730469 14.0625 " clip-rule="nonzero"/></clipPath><clipPath id="356898d242"><path d="M 189.234375 14.0625 L 272.664062 14.0625 L 272.664062 74.84375 L 189.234375 74.84375 Z M 189.234375 14.0625 " clip-rule="nonzero"/></clipPath><clipPath id="1406c39900"><path d="M 16.597656 187.5 L 358.445312 187.5 L 358.445312 287.976562 L 16.597656 287.976562 Z M 16.597656 187.5 " clip-rule="nonzero"/></clipPath><clipPath id="ea04bf9245"><path d="M 187.5 187.5 L 358.402344 287.976562 L 16.597656 287.976562 Z M 187.5 187.5 " clip-rule="nonzero"/></clipPath><clipPath id="eebbfa4ab5"><path d="M 0.597656 0.5 L 342.445312 0.5 L 342.445312 100.976562 L 0.597656 100.976562 Z M 0.597656 0.5 " clip-rule="nonzero"/></clipPath><clipPath id="f2870576df"><path d="M 171.5 0.5 L 342.402344 100.976562 L 0.597656 100.976562 Z M 171.5 0.5 " clip-rule="nonzero"/></clipPath><clipPath id="e6c91a56a9"><rect x="0" width="343" y="0" height="101"/></clipPath><clipPath id="ee1c4082f9"><path d="M 75 137 L 299 137 L 299 329.0625 L 75 329.0625 Z M 75 137 " clip-rule="nonzero"/></clipPath></defs><rect x="-37.5" width="450" fill="#ffffff" y="-37.499999" height="449.999989" fill-opacity="1"/><rect x="-37.5" width="450" fill="#000000" y="-37.499999" height="449.999989" fill-opacity="1"/><g clip-path="url(#5910e9238c)"><path fill="#0097b2" d="M 275.726562 336.78125 C 300.839844 321.886719 321.878906 300.851562 336.773438 275.738281 L 298.429688 253.601562 C 287.453125 272 271.992188 287.460938 253.589844 298.441406 Z M 276.984375 331.875 L 258.382812 299.652344 C 274.972656 289.148438 289.136719 274.984375 299.644531 258.390625 L 331.863281 276.996094 C 324.980469 288.066406 316.820312 298.34375 307.578125 307.585938 C 298.335938 316.832031 288.058594 324.988281 276.984375 331.875 " fill-opacity="1" fill-rule="nonzero"/></g><g clip-path="url(#f09c41cc9c)"><path fill="#0097b2" d="M 338.5625 272.671875 C 352.535156 247.984375 360.628906 219.546875 360.929688 189.28125 L 316.65625 189.28125 C 316.355469 211.488281 310.421875 232.367188 300.21875 250.539062 Z M 337.207031 267.800781 L 304.980469 249.195312 C 314.121094 231.835938 319.3125 212.484375 320.101562 192.820312 L 357.3125 192.820312 C 356.902344 206.148438 354.933594 219.359375 351.453125 232.136719 C 348.085938 244.503906 343.296875 256.484375 337.207031 267.800781 " fill-opacity="1" fill-rule="nonzero"/></g><g clip-path="url(#8ef301f02f)"><path fill="#0097b2" d="M 316.65625 185.738281 L 360.929688 185.738281 C 360.628906 155.472656 352.535156 127.03125 338.5625 102.34375 L 300.21875 124.480469 C 310.421875 142.652344 316.355469 163.53125 316.65625 185.738281 Z M 320.101562 182.195312 C 319.3125 162.535156 314.121094 143.179688 304.980469 125.824219 L 337.207031 107.21875 C 343.296875 118.53125 348.085938 130.511719 351.453125 142.878906 C 354.933594 155.660156 356.902344 168.867188 357.3125 182.195312 L 320.101562 182.195312 " fill-opacity="1" fill-rule="nonzero"/></g><path fill="#0097b2" d="M 56.609375 191.050781 C 57.164062 211.605469 62.601562 231.867188 72.390625 249.871094 L 37.109375 270.242188 C 30.535156 258.339844 25.398438 245.6875 21.835938 232.605469 C 18.164062 219.105469 16.15625 205.136719 15.871094 191.050781 L 56.609375 191.050781 " fill-opacity="1" fill-rule="nonzero"/><g clip-path="url(#f21255c38d)"><path fill="#0097b2" d="M 36.4375 272.671875 L 74.78125 250.539062 C 64.578125 232.367188 58.648438 211.488281 58.347656 189.28125 L 14.074219 189.28125 C 14.371094 219.546875 22.46875 247.988281 36.4375 272.671875 Z M 37.796875 267.800781 C 31.703125 256.484375 26.914062 244.507812 23.546875 232.136719 C 20.066406 219.359375 18.097656 206.148438 17.6875 192.820312 L 54.898438 192.820312 C 55.6875 212.484375 60.878906 231.835938 70.019531 249.195312 L 37.796875 267.800781 " fill-opacity="1" fill-rule="nonzero"/></g><g clip-path="url(#35cd821011)"><path fill="#0097b2" d="M 75.949219 256.003906 C 86.699219 273.476562 101.535156 288.308594 119.007812 299.058594 L 98.636719 334.335938 C 75.007812 319.984375 55.023438 300 40.671875 276.371094 L 75.949219 256.003906 " fill-opacity="1" fill-rule="nonzero"/></g><g clip-path="url(#6679cafd6e)"><path fill="#0097b2" d="M 99.273438 336.78125 L 121.40625 298.441406 C 103.007812 287.460938 87.546875 272 76.566406 253.601562 L 38.226562 275.738281 C 53.121094 300.851562 74.160156 321.886719 99.273438 336.78125 Z M 98.015625 331.875 C 86.941406 324.988281 76.664062 316.832031 67.421875 307.585938 C 58.179688 298.34375 50.019531 288.066406 43.132812 276.996094 L 75.355469 258.390625 C 85.863281 274.984375 100.027344 289.148438 116.617188 299.652344 L 98.015625 331.875 " fill-opacity="1" fill-rule="nonzero"/></g><path fill="#0097b2" d="M 276.359375 40.683594 C 299.992188 55.035156 319.976562 75.019531 334.328125 98.648438 L 299.046875 119.015625 C 288.300781 101.542969 273.464844 86.710938 255.992188 75.960938 L 276.359375 40.683594 " fill-opacity="1" fill-rule="nonzero"/><path fill="#0097b2" d="M 298.429688 121.417969 L 336.773438 99.28125 C 321.878906 74.167969 300.839844 53.128906 275.726562 38.234375 L 253.589844 76.578125 C 271.992188 87.558594 287.453125 103.019531 298.429688 121.417969 Z M 299.644531 116.628906 C 289.136719 100.035156 274.972656 85.871094 258.382812 75.363281 L 276.984375 43.144531 C 288.058594 50.03125 298.335938 58.1875 307.578125 67.433594 C 316.820312 76.675781 324.980469 86.953125 331.863281 98.023438 L 299.644531 116.628906 " fill-opacity="1" fill-rule="nonzero"/><path fill="#0097b2" d="M 183.957031 56.621094 C 163.40625 57.175781 143.140625 62.609375 125.136719 72.398438 L 104.765625 37.117188 C 116.667969 30.542969 129.324219 25.410156 142.40625 21.847656 C 155.902344 18.171875 169.871094 16.164062 183.957031 15.878906 L 183.957031 56.621094 " fill-opacity="1" fill-rule="nonzero"/><g clip-path="url(#69385f2c0f)"><path fill="#0097b2" d="M 124.472656 74.789062 C 142.640625 64.589844 163.523438 58.65625 185.730469 58.355469 L 185.730469 14.082031 C 155.460938 14.382812 127.023438 22.476562 102.335938 36.449219 Z M 125.8125 70.027344 L 107.207031 37.804688 C 118.523438 31.710938 130.503906 26.925781 142.871094 23.554688 C 155.652344 20.074219 168.859375 18.105469 182.1875 17.695312 L 182.1875 54.90625 C 162.523438 55.695312 143.171875 60.886719 125.8125 70.027344 " fill-opacity="1" fill-rule="nonzero"/></g><path fill="#0097b2" d="M 72.390625 125.144531 C 62.601562 143.152344 57.164062 163.414062 56.609375 183.96875 L 15.871094 183.96875 C 16.15625 169.882812 18.164062 155.914062 21.835938 142.414062 C 25.398438 129.332031 30.535156 116.679688 37.109375 104.777344 L 72.390625 125.144531 " fill-opacity="1" fill-rule="nonzero"/><g clip-path="url(#bd984722dd)"><path fill="#0097b2" d="M 14.074219 185.738281 L 58.347656 185.738281 C 58.648438 163.53125 64.578125 142.652344 74.78125 124.480469 L 36.4375 102.34375 C 22.46875 127.03125 14.371094 155.472656 14.074219 185.738281 Z M 17.6875 182.195312 C 18.097656 168.867188 20.066406 155.660156 23.546875 142.882812 C 26.914062 130.511719 31.703125 118.53125 37.796875 107.21875 L 70.019531 125.824219 C 60.878906 143.179688 55.6875 162.53125 54.898438 182.195312 L 17.6875 182.195312 " fill-opacity="1" fill-rule="nonzero"/></g><path fill="#0097b2" d="M 119.007812 75.960938 C 101.535156 86.710938 86.699219 101.542969 75.953125 119.015625 L 40.671875 98.648438 C 55.023438 75.015625 75.007812 55.035156 98.640625 40.683594 L 119.007812 75.960938 " fill-opacity="1" fill-rule="nonzero"/><path fill="#0097b2" d="M 76.566406 121.417969 C 87.546875 103.019531 103.007812 87.558594 121.40625 76.578125 L 99.269531 38.234375 C 74.160156 53.132812 53.121094 74.167969 38.226562 99.28125 Z M 75.355469 116.628906 L 43.132812 98.023438 C 50.019531 86.953125 58.179688 76.675781 67.421875 67.433594 C 76.664062 58.1875 86.941406 50.03125 98.015625 43.144531 L 116.617188 75.363281 C 100.027344 85.871094 85.863281 100.039062 75.355469 116.628906 " fill-opacity="1" fill-rule="nonzero"/><g clip-path="url(#6916417ef6)"><path fill="#0097b2" d="M 185.730469 14.082031 L 189.269531 14.082031 C 188.6875 14.0625 188.085938 14.0625 187.5 14.0625 C 186.914062 14.0625 186.3125 14.0625 185.730469 14.082031 " fill-opacity="1" fill-rule="nonzero"/></g><path fill="#0097b2" d="M 191.042969 15.878906 C 205.128906 16.164062 219.097656 18.171875 232.59375 21.847656 C 245.679688 25.410156 258.332031 30.542969 270.234375 37.117188 L 249.863281 72.398438 C 231.859375 62.609375 211.59375 57.175781 191.042969 56.621094 L 191.042969 15.878906 " fill-opacity="1" fill-rule="nonzero"/><g clip-path="url(#356898d242)"><path fill="#0097b2" d="M 250.527344 74.789062 L 272.664062 36.449219 C 247.976562 22.476562 219.535156 14.382812 189.273438 14.082031 L 189.273438 58.355469 C 211.480469 58.65625 232.359375 64.589844 250.527344 74.789062 Z M 249.1875 70.027344 C 231.828125 60.886719 212.476562 55.695312 192.8125 54.90625 L 192.8125 17.695312 C 206.140625 18.105469 219.347656 20.074219 232.128906 23.554688 C 244.496094 26.925781 256.476562 31.710938 267.792969 37.804688 L 249.1875 70.027344 " fill-opacity="1" fill-rule="nonzero"/></g><g clip-path="url(#1406c39900)"><g clip-path="url(#ea04bf9245)"><g transform="matrix(1, 0, 0, 1, 16, 187)"><g clip-path="url(#e6c91a56a9)"><g clip-path="url(#eebbfa4ab5)"><g clip-path="url(#f2870576df)"><path fill="#000000" d="M 0.597656 0.5 L 342.445312 0.5 L 342.445312 100.976562 L 0.597656 100.976562 Z M 0.597656 0.5 " fill-opacity="1" fill-rule="nonzero"/></g></g></g></g></g></g><g clip-path="url(#ee1c4082f9)"><path fill="#ff1a05" d="M 241.167969 137.589844 C 217.4375 138.386719 196.894531 149.714844 187.023438 165.992188 C 175.875 147.480469 153.578125 138.386719 132.71875 137.589844 C 114.085938 136.949219 94.339844 143.652344 83.351562 159.449219 C 77.777344 167.746094 75.070312 177.640625 75.546875 187.53125 C 76.820312 228.859375 115.996094 271.460938 147.527344 299.066406 C 151.351562 293.800781 155.492188 288.695312 158.515625 282.949219 C 159.632812 281.035156 160.425781 278.960938 160.269531 276.726562 C 160.109375 274.015625 159.472656 271.300781 158.835938 268.75 C 157.082031 261.566406 154.855469 254.707031 152.785156 247.527344 C 151.191406 241.621094 149.121094 235.242188 148.960938 229.175781 C 148.960938 226.304688 150.234375 224.550781 152.785156 223.273438 C 153.898438 222.792969 155.011719 222.953125 156.285156 222.953125 C 157.878906 222.953125 159.472656 222.636719 160.90625 221.679688 C 161.859375 221.039062 162.816406 220.242188 163.613281 219.445312 C 164.726562 218.167969 164.886719 216.730469 165.523438 215.136719 C 166.636719 212.421875 170.460938 210.667969 173.167969 211.464844 C 174.441406 211.785156 175.554688 212.582031 176.832031 212.902344 C 178.105469 213.0625 179.539062 213.222656 180.8125 213.0625 C 182.085938 212.902344 183.359375 212.105469 184.316406 211.148438 C 185.269531 210.1875 185.429688 208.914062 186.226562 207.796875 C 187.820312 205.722656 191.640625 205.5625 193.871094 206.359375 C 196.894531 207.316406 196.894531 210.507812 198.488281 212.742188 C 199.285156 214.019531 200.558594 214.976562 202.152344 215.296875 C 204.222656 215.613281 205.65625 214.179688 207.566406 213.699219 C 210.433594 212.902344 214.253906 214.496094 215.210938 217.371094 C 215.6875 218.488281 215.527344 219.921875 215.6875 221.199219 C 215.847656 222.953125 215.847656 224.710938 216.007812 226.625 C 216.164062 229.816406 216.164062 233.007812 216.800781 236.199219 C 216.644531 240.027344 217.597656 244.015625 218.714844 247.527344 C 219.03125 248.804688 219.667969 251.675781 221.578125 250.71875 C 222.535156 250.238281 222.535156 249.441406 222.375 248.644531 C 221.738281 245.132812 220.941406 241.78125 220.304688 238.273438 C 221.898438 238.910156 223.332031 239.546875 224.925781 240.1875 C 226.199219 240.664062 228.109375 241.304688 229.066406 242.261719 C 230.65625 244.175781 230.339844 247.367188 230.339844 249.601562 C 230.339844 252.152344 230.179688 254.867188 229.859375 257.417969 C 229.542969 260.449219 228.109375 262.683594 226.199219 264.917969 C 220.785156 270.824219 214.414062 275.769531 208.363281 281.195312 C 205.65625 283.585938 203.425781 286.460938 201.035156 289.171875 C 198.328125 292.363281 195.460938 295.554688 192.753906 298.90625 C 186.703125 306.085938 180.652344 313.425781 175.078125 321.085938 C 181.925781 326.191406 186.542969 329.0625 186.863281 329.0625 C 187.339844 328.902344 193.074219 325.234375 201.515625 318.851562 C 197.691406 314.222656 193.871094 309.753906 190.683594 306.085938 C 195.304688 300.5 199.921875 295.074219 204.539062 289.652344 C 206.292969 287.578125 208.042969 285.503906 209.953125 283.746094 C 212.660156 281.355469 215.527344 278.960938 218.234375 276.566406 C 219.03125 280.238281 220.144531 283.746094 222.535156 286.777344 C 224.925781 289.808594 227.472656 292.683594 230.019531 295.394531 C 260.753906 267.789062 296.90625 226.941406 298.179688 187.210938 C 299.929688 158.011719 275.089844 136.3125 241.167969 137.589844 Z M 152.464844 257.261719 C 153.738281 261.566406 155.011719 265.714844 155.96875 270.023438 C 156.605469 272.578125 157.878906 276.40625 157.082031 278.960938 C 154.855469 277.84375 152.464844 276.886719 150.394531 275.289062 C 148.484375 273.855469 146.730469 272.257812 144.503906 271.140625 C 139.246094 268.75 133.195312 266.675781 127.304688 266.675781 C 125.550781 266.675781 123.003906 267.3125 121.410156 266.675781 C 119.339844 265.875 118.863281 263.324219 119.820312 261.566406 C 121.730469 257.261719 127.304688 254.386719 131.921875 254.226562 C 138.769531 253.75 145.296875 258.695312 152.464844 257.261719 Z M 162.179688 215.613281 C 161.382812 219.285156 157.5625 219.921875 154.535156 219.761719 C 149.917969 209.390625 145.777344 198.859375 142.113281 188.167969 C 141.636719 186.894531 141 185.617188 140.839844 184.179688 C 140.519531 181.148438 143.070312 178.914062 145.933594 178.914062 C 149.4375 178.914062 150.714844 181.789062 152.144531 184.5 C 153.421875 187.210938 154.695312 190.085938 155.96875 192.636719 C 158.992188 198.699219 162.496094 204.445312 165.523438 210.347656 C 163.773438 211.785156 162.65625 213.539062 162.179688 215.613281 Z M 183.359375 207 C 182.5625 208.753906 181.765625 210.03125 179.695312 210.03125 C 177.46875 210.03125 175.875 208.914062 173.644531 208.433594 C 171.734375 197.742188 168.867188 187.054688 166.957031 176.203125 C 166.320312 172.375 166.957031 167.90625 171.574219 167.425781 C 173.804688 167.265625 175.714844 168.542969 176.671875 170.617188 C 178.105469 173.96875 178.902344 177.480469 180.015625 180.988281 C 182.246094 188.648438 184.316406 196.46875 186.066406 204.285156 C 184.953125 204.925781 183.835938 205.882812 183.359375 207 Z M 206.132812 211.304688 C 204.859375 211.785156 203.585938 212.902344 202.152344 212.261719 C 201.035156 211.625 200.398438 210.03125 199.921875 208.914062 C 198.808594 206.199219 197.214844 204.285156 194.347656 203.488281 C 195.304688 195.988281 195.460938 188.488281 195.941406 180.988281 C 196.097656 179.234375 196.097656 177.160156 197.375 175.882812 C 198.964844 174.128906 201.671875 173.648438 203.742188 175.085938 C 205.175781 176.042969 205.8125 177.640625 206.132812 179.234375 C 206.769531 182.265625 206.292969 185.617188 206.292969 188.648438 C 206.449219 196.148438 206.609375 203.648438 206.132812 211.304688 Z M 230.496094 203.964844 C 229.382812 209.390625 227.472656 214.65625 225.71875 219.921875 C 223.96875 225.027344 221.101562 229.816406 220.464844 235.242188 C 220.304688 235.242188 219.988281 235.082031 219.828125 235.082031 C 219.03125 231.25 219.351562 227.261719 219.03125 223.433594 C 218.871094 219.761719 219.03125 216.09375 216.164062 213.378906 C 217.28125 210.667969 218.554688 208.113281 219.507812 205.402344 C 220.464844 202.371094 221.101562 198.699219 223.171875 196.148438 C 225.082031 193.914062 228.585938 192.796875 230.339844 195.667969 C 232.25 198.222656 231.132812 201.09375 230.496094 203.964844 Z M 230.496094 203.964844 " fill-opacity="1" fill-rule="nonzero"/></g></svg>